<svg width="888" height="689" viewBox="0 0 888 689" fill="none" xmlns="http://www.w3.org/2000/svg">
<path fill-rule="evenodd" clip-rule="evenodd" d="M15 0C6.71573 0 0 6.71571 0 15V673.9C0 682.184 6.71573 688.9 15 688.9H873C881.284 688.9 888 682.184 888 673.9V15C888 6.71573 881.284 0 873 0H15ZM818.009 180.774H65.6154V620.498H818.009V180.774ZM227.469 249.177H118.109V371.322H227.469V249.177ZM297.457 249.177H406.817V371.322H297.457V249.177ZM586.166 249.177H476.807V371.322H586.166V249.177ZM656.158 249.177H765.518V371.322H656.158V249.177ZM227.469 429.951H118.109V552.097H227.469V429.951ZM297.457 429.951H406.817V552.097H297.457V429.951ZM586.166 429.951H476.807V552.097H586.166V429.951ZM656.158 429.951H765.518V552.097H656.158V429.951ZM118.109 63.5166H253.715V131.918H118.109V63.5166ZM765.517 63.5166H629.911V131.918H765.517V63.5166Z" fill="#C6C6C6"/>
</svg>
