<svg width="1417" height="1387" viewBox="0 0 1417 1387" fill="none" xmlns="http://www.w3.org/2000/svg">
<path d="M592 382L899.5 559.535L899.5 204.465L592 382Z" fill="white"/>
<rect x="551.158" y="1050" width="242.19" height="88.3281" rx="40" transform="rotate(29.2488 551.158 1050)" fill="white"/>
<rect width="242.19" height="88.3281" rx="40" transform="matrix(-0.872506 0.488603 0.488603 0.872506 865.312 1050)" fill="white"/>
<rect y="1079" width="98" height="193" rx="35" fill="white"/>
<rect width="98" height="193" rx="35" transform="matrix(-1 0 0 1 1416.47 1079)" fill="white"/>
<path d="M0 963C0 871.321 74.3207 797 166 797H453C544.679 797 619 871.321 619 963V1077C619 1101.3 599.301 1121 575 1121H0V963Z" fill="white"/>
<path d="M1416.47 963C1416.47 871.321 1342.15 797 1250.47 797H963.471C871.791 797 797.471 871.321 797.471 963V1077C797.471 1101.3 817.17 1121 841.471 1121H1416.47V963Z" fill="white"/>
<rect x="89" y="977" width="441" height="410" fill="white"/>
<rect width="441" height="410" transform="matrix(-1 0 0 1 1327 977)" fill="white"/>
<circle cx="309.5" cy="620.5" r="176.5" fill="white"/>
<circle cx="176.5" cy="176.5" r="176.5" transform="matrix(-1 0 0 1 1283.47 444)" fill="white"/>
<path fill-rule="evenodd" clip-rule="evenodd" d="M1416 0H0V417H1416V0ZM417 301C468.363 301 510 259.362 510 208C510 156.638 468.363 115 417 115C365.637 115 324 156.638 324 208C324 259.362 365.637 301 417 301ZM801 208C801 259.362 759.363 301 708 301C656.637 301 615 259.362 615 208C615 156.638 656.637 115 708 115C759.363 115 801 156.638 801 208ZM999 301C1050.36 301 1092 259.362 1092 208C1092 156.638 1050.36 115 999 115C947.637 115 906 156.638 906 208C906 259.362 947.637 301 999 301Z" fill="white"/>
</svg>
