<svg width="673" height="674" viewBox="0 0 673 674" fill="none" xmlns="http://www.w3.org/2000/svg">
<path fill-rule="evenodd" clip-rule="evenodd" d="M246.974 0H426.049V118.879C445.653 126.941 463.93 137.571 480.462 150.351L583.463 90.8833L673 245.967L570.001 305.434C571.368 315.704 572.074 326.183 572.074 336.827C572.074 347.483 571.367 357.973 569.996 368.254L672.979 427.711L583.441 582.795L480.435 523.324C463.911 536.095 445.643 546.718 426.049 554.776V673.7H246.974V554.775C227.383 546.718 209.118 536.097 192.596 523.329L89.5592 582.817L0.0215408 427.733L103.03 368.261C101.659 357.978 100.951 347.486 100.951 336.827C100.951 326.181 101.657 315.699 103.026 305.427L0 245.945L89.5377 90.8611L192.57 150.347C209.098 137.569 227.373 126.941 246.974 118.88V0ZM336.492 451.32C399.712 451.32 450.961 400.07 450.961 336.851C450.961 273.631 399.712 222.381 336.492 222.381C273.273 222.381 222.023 273.631 222.023 336.851C222.023 400.07 273.273 451.32 336.492 451.32Z" fill="black"/>
</svg>
